M48
; DRILL file KiCad 10.0.6 date 2026-09-07T19:23:35
; FORMAT={-:-/ absolute / metric / decimal}
; #@! TF.CreationDate,2026-09-07T19:23:35+05:30
; #@! TF.GenerationSoftware,Kicad,Pcbnew,10.0.6
; #@! TF.FileFunction,Plated,1,2,PTH
FMAT,2
METRIC
; #@! TA.AperFunction,Plated,PTH,ViaDrill
T1C0.300
; #@! TA.AperFunction,Plated,PTH,ComponentDrill
T2C0.889
; #@! TA.AperFunction,Plated,PTH,ComponentDrill
T3C1.000
; #@! TA.AperFunction,Plated,PTH,ComponentDrill
T4C1.500
%
G90
G05
T1
X114.457Y-107.457
T2
X119.0Y-102.3
X119.0Y-104.84
X119.0Y-107.38
X119.0Y-109.92
X119.0Y-112.46
X119.0Y-115.0
X119.0Y-117.54
X134.24Y-102.3
X134.24Y-104.84
X134.24Y-107.38
X134.24Y-109.92
X134.24Y-112.46
X134.24Y-115.0
X134.24Y-117.54
T3
X91.72Y-116.0
X94.26Y-116.0
X96.8Y-116.0
X99.34Y-116.0
X101.88Y-116.0
X104.42Y-116.0
X106.96Y-116.0
X109.5Y-116.0
X157.0Y-109.7
X157.0Y-117.3
T4
X93.77Y-127.46
X100.12Y-124.92
X112.77Y-127.46
X119.12Y-124.92
X131.77Y-127.46
X138.12Y-124.92
X150.77Y-127.46
X157.12Y-124.92
M30
