%TF.GenerationSoftware,KiCad,Pcbnew,10.0.6*%
%TF.CreationDate,2026-09-06T22:11:15+05:30*%
%TF.ProjectId,ALARM,414c4152-4d2e-46b6-9963-61645f706362,rev?*%
%TF.SameCoordinates,Original*%
%TF.FileFunction,Copper,L1,Top*%
%TF.FilePolarity,Positive*%
%FSLAX46Y46*%
G04 Gerber Fmt 4.6, Leading zero omitted, Abs format (unit mm)*
G04 Created by KiCad (PCBNEW 10.0.6) date 2026-09-06 22:11:15*
%MOMM*%
%LPD*%
G01*
G04 APERTURE LIST*
%TA.AperFunction,ComponentPad*%
%ADD10C,2.200000*%
%TD*%
%TA.AperFunction,ComponentPad*%
%ADD11R,1.700000X1.700000*%
%TD*%
%TA.AperFunction,ComponentPad*%
%ADD12C,1.700000*%
%TD*%
%TA.AperFunction,ComponentPad*%
%ADD13R,2.000000X2.000000*%
%TD*%
%TA.AperFunction,ComponentPad*%
%ADD14C,2.000000*%
%TD*%
%TA.AperFunction,ComponentPad*%
%ADD15C,1.524000*%
%TD*%
%TA.AperFunction,ViaPad*%
%ADD16C,0.600000*%
%TD*%
%TA.AperFunction,Conductor*%
%ADD17C,0.200000*%
%TD*%
G04 APERTURE END LIST*
D10*
%TO.P,SW2,1,1_1*%
%TO.N,GND*%
X119120000Y-124920000D03*
%TO.P,SW2,2,2_2*%
%TO.N,Net-(U1-D2)*%
X112770000Y-127460000D03*
%TD*%
%TO.P,SW1,1,1_1*%
%TO.N,GND*%
X100120000Y-124920000D03*
%TO.P,SW1,2,2_2*%
%TO.N,Net-(U1-D3)*%
X93770000Y-127460000D03*
%TD*%
%TO.P,SW3,1,1_1*%
%TO.N,GND*%
X138120000Y-124920000D03*
%TO.P,SW3,2,2_2*%
%TO.N,Net-(U1-D1)*%
X131770000Y-127460000D03*
%TD*%
%TO.P,SW4,1,1_1*%
%TO.N,GND*%
X157120000Y-124920000D03*
%TO.P,SW4,2,2_2*%
%TO.N,Net-(U1-D0)*%
X150770000Y-127460000D03*
%TD*%
D11*
%TO.P,J1,1,Pin_1_1*%
%TO.N,GND*%
X109500000Y-116000000D03*
D12*
%TO.P,J1,2,Pin_2_2*%
%TO.N,+3.3V*%
X106960000Y-116000000D03*
%TO.P,J1,3,Pin_3_3*%
%TO.N,/SCL*%
X104420000Y-116000000D03*
%TO.P,J1,4,Pin_4_4*%
%TO.N,/SDA*%
X101880000Y-116000000D03*
%TO.P,J1,5,Pin_5_5*%
%TO.N,/RST*%
X99340000Y-116000000D03*
%TO.P,J1,6,Pin_6_6*%
%TO.N,/DC*%
X96800000Y-116000000D03*
%TO.P,J1,7,Pin_7_7*%
%TO.N,/CS*%
X94260000Y-116000000D03*
%TO.P,J1,8,Pin_8_8*%
%TO.N,/BL*%
X91720000Y-116000000D03*
%TD*%
D13*
%TO.P,BZ1,1,+_1*%
%TO.N,Net-(BZ1-+)*%
X157000000Y-109700000D03*
D14*
%TO.P,BZ1,2,-_2*%
%TO.N,GND*%
X157000000Y-117300000D03*
%TD*%
D15*
%TO.P,U1,1,D0_1*%
%TO.N,Net-(U1-D0)*%
X134240000Y-102300000D03*
%TO.P,U1,2,D1_2*%
%TO.N,Net-(U1-D1)*%
X134240000Y-104840000D03*
%TO.P,U1,3,D2_3*%
%TO.N,Net-(U1-D2)*%
X134240000Y-107380000D03*
%TO.P,U1,4,D3_4*%
%TO.N,Net-(U1-D3)*%
X134240000Y-109920000D03*
%TO.P,U1,5,D4_5*%
%TO.N,/DC*%
X134240000Y-112460000D03*
%TO.P,U1,6,D5_6*%
%TO.N,/CS*%
X134240000Y-115000000D03*
%TO.P,U1,7,D6_7*%
%TO.N,/BL*%
X134240000Y-117540000D03*
%TO.P,U1,8,D7_8*%
%TO.N,Net-(BZ1-+)*%
X119000000Y-117540000D03*
%TO.P,U1,9,D8_9*%
%TO.N,/RST*%
X119000000Y-115000000D03*
%TO.P,U1,10,D9/BOOT_10*%
%TO.N,/SCL*%
X119000000Y-112460000D03*
%TO.P,U1,11,D10_11*%
%TO.N,/SDA*%
X119000000Y-109920000D03*
%TO.P,U1,12,3V3_OUT_12*%
%TO.N,+3.3V*%
X119000000Y-107380000D03*
%TO.P,U1,13,GND_13*%
%TO.N,GND*%
X119000000Y-104840000D03*
%TO.P,U1,14,VBUS_14*%
%TO.N,unconnected-(U1-VBUS-Pad14)*%
X119000000Y-102300000D03*
%TD*%
D16*
%TO.N,+3.3V*%
X114456920Y-107456920D03*
%TD*%
%TO.N,+3.3V*%
D17*
X114533840Y-107380000D02*
X114456920Y-107456920D01*
X119000000Y-107380000D02*
X114533840Y-107380000D01*
%TO.N,/SCL*%
X107960000Y-112460000D02*
X119000000Y-112460000D01*
X104420000Y-116000000D02*
X107960000Y-112460000D01*
%TO.N,/SDA*%
X107960000Y-109920000D02*
X119000000Y-109920000D01*
X101880000Y-116000000D02*
X107960000Y-109920000D01*
%TO.N,/RST*%
X116850000Y-117150000D02*
X119000000Y-115000000D01*
X100490000Y-117150000D02*
X116850000Y-117150000D01*
X99340000Y-116000000D02*
X100490000Y-117150000D01*
%TO.N,/BL*%
X132378000Y-119402000D02*
X134240000Y-117540000D01*
X95122000Y-119402000D02*
X132378000Y-119402000D01*
X91720000Y-116000000D02*
X95122000Y-119402000D01*
%TO.N,/CS*%
X130238000Y-119002000D02*
X134240000Y-115000000D01*
X97262000Y-119002000D02*
X130238000Y-119002000D01*
X94260000Y-116000000D02*
X97262000Y-119002000D01*
%TO.N,/DC*%
X99402000Y-118602000D02*
X128098000Y-118602000D01*
X96800000Y-116000000D02*
X99402000Y-118602000D01*
X128098000Y-118602000D02*
X134240000Y-112460000D01*
%TO.N,Net-(U1-D0)*%
X151460000Y-127460000D02*
X151500000Y-127500000D01*
X150770000Y-127460000D02*
X150770000Y-118830000D01*
X150770000Y-127460000D02*
X151460000Y-127460000D01*
X150770000Y-118830000D02*
X134240000Y-102300000D01*
%TO.N,Net-(U1-D2)*%
X138000000Y-111140000D02*
X134240000Y-107380000D01*
X112770000Y-127460000D02*
X118230000Y-122000000D01*
X138000000Y-122000000D02*
X138000000Y-111140000D01*
X118230000Y-122000000D02*
X138000000Y-122000000D01*
%TO.N,Net-(U1-D1)*%
X139500000Y-122500000D02*
X136730000Y-122500000D01*
X139500000Y-110100000D02*
X139500000Y-122500000D01*
X136730000Y-122500000D02*
X131770000Y-127460000D01*
X134240000Y-104840000D02*
X139500000Y-110100000D01*
%TO.N,Net-(U1-D3)*%
X136500000Y-121500000D02*
X99730000Y-121500000D01*
X99730000Y-121500000D02*
X93770000Y-127460000D01*
X137000000Y-121000000D02*
X136500000Y-121500000D01*
X134240000Y-109920000D02*
X137000000Y-112680000D01*
X137000000Y-112680000D02*
X137000000Y-121000000D01*
%TD*%
M02*
