%TF.GenerationSoftware,KiCad,Pcbnew,10.0.6*%
%TF.CreationDate,2026-09-06T22:11:15+05:30*%
%TF.ProjectId,ALARM,414c4152-4d2e-46b6-9963-61645f706362,rev?*%
%TF.SameCoordinates,Original*%
%TF.FileFunction,Legend,Top*%
%TF.FilePolarity,Positive*%
%FSLAX46Y46*%
G04 Gerber Fmt 4.6, Leading zero omitted, Abs format (unit mm)*
G04 Created by KiCad (PCBNEW 10.0.6) date 2026-09-06 22:11:15*
%MOMM*%
%LPD*%
G01*
G04 APERTURE LIST*
%ADD10C,0.200000*%
%ADD11C,0.150000*%
%ADD12C,0.120000*%
G04 APERTURE END LIST*
D10*
G36*
X92554293Y-101877182D02*
G01*
X92571414Y-101971978D01*
X92559504Y-102054757D01*
X92518841Y-102158274D01*
X92297191Y-102551017D01*
X91958670Y-103153319D01*
X92044033Y-103154419D01*
X92125183Y-103157349D01*
X92270446Y-103161929D01*
X92290898Y-103174499D01*
X92298839Y-103208274D01*
X92266416Y-103269640D01*
X92154125Y-103409591D01*
X91996955Y-103609077D01*
X91696170Y-103633806D01*
X91491677Y-104044302D01*
X91458583Y-104141404D01*
X91468066Y-104185918D01*
X91493822Y-104210934D01*
X91540832Y-104220355D01*
X91610792Y-104194329D01*
X91905181Y-104032960D01*
X91886496Y-104157158D01*
X91623264Y-104356643D01*
X91460964Y-104476810D01*
X91334752Y-104548251D01*
X91276872Y-104566195D01*
X91219164Y-104572065D01*
X91152407Y-104557174D01*
X91081777Y-104507768D01*
X91032414Y-104433083D01*
X91014549Y-104326051D01*
X91021823Y-104273765D01*
X91049537Y-104189947D01*
X91124642Y-104021786D01*
X91321929Y-103646812D01*
X90971135Y-103654689D01*
X90485886Y-103646446D01*
X90327616Y-103815340D01*
X90149380Y-103997423D01*
X90004849Y-104140305D01*
X89905382Y-104238490D01*
X89609176Y-104524987D01*
X89463729Y-104646620D01*
X89386274Y-104688838D01*
X89321397Y-104701209D01*
X89276798Y-104692553D01*
X89252684Y-104669836D01*
X89243911Y-104629951D01*
X89263837Y-104550707D01*
X89347042Y-104406652D01*
X89457586Y-104264559D01*
X89580416Y-104141221D01*
X89709551Y-104049269D01*
X89794740Y-104025816D01*
X89857021Y-104046699D01*
X90235842Y-103636737D01*
X90054125Y-103624830D01*
X89891643Y-103606512D01*
X89860086Y-103581416D01*
X89848412Y-103531041D01*
X89862353Y-103474052D01*
X89916988Y-103384695D01*
X90038555Y-103247109D01*
X90144733Y-103156588D01*
X90233461Y-103112103D01*
X90344945Y-103092901D01*
X90579675Y-103086824D01*
X90443222Y-103115919D01*
X90371214Y-103139947D01*
X90322841Y-103173244D01*
X90305635Y-103212121D01*
X90408583Y-103212121D01*
X90539558Y-103211205D01*
X90657161Y-103208274D01*
X90703815Y-103164860D01*
X90958862Y-103164860D01*
X91605129Y-103152770D01*
X91792890Y-102836231D01*
X91952808Y-102570434D01*
X92102468Y-102327168D01*
X92228314Y-102122004D01*
X91948046Y-102312513D01*
X91602015Y-102581974D01*
X91260013Y-102875066D01*
X90958862Y-103164860D01*
X90703815Y-103164860D01*
X91266425Y-102641325D01*
X91548018Y-102406062D01*
X91845830Y-102181905D01*
X92159475Y-101973965D01*
X92499607Y-101780186D01*
X92554293Y-101877182D01*
G37*
G36*
X93542689Y-102916262D02*
G01*
X93583496Y-102944675D01*
X93643763Y-103030404D01*
X93665744Y-103102944D01*
X93657878Y-103138486D01*
X93635336Y-103162112D01*
X93538799Y-103203511D01*
X93573054Y-103282280D01*
X93608225Y-103366543D01*
X93620682Y-103424979D01*
X93602831Y-103483420D01*
X93520664Y-103612191D01*
X93381446Y-103811310D01*
X93352426Y-103879378D01*
X93342062Y-103965549D01*
X93358346Y-104050285D01*
X93400940Y-104095921D01*
X93475418Y-104112461D01*
X93564703Y-104092226D01*
X93707689Y-104012841D01*
X93930259Y-103836955D01*
X93930259Y-103976540D01*
X93631786Y-104281941D01*
X93422655Y-104453019D01*
X93279629Y-104532498D01*
X93182510Y-104553564D01*
X93109318Y-104539057D01*
X93064174Y-104499342D01*
X93038939Y-104437810D01*
X93029003Y-104341622D01*
X93051450Y-104167868D01*
X93135066Y-103901618D01*
X92710266Y-104349499D01*
X92606253Y-104435954D01*
X92527609Y-104478127D01*
X92467184Y-104490000D01*
X92420354Y-104474190D01*
X92350497Y-104410498D01*
X92287824Y-104322962D01*
X92229047Y-104205701D01*
X92189588Y-104077743D01*
X92183462Y-104015924D01*
X92444469Y-104015924D01*
X92450281Y-104077229D01*
X92465718Y-104121437D01*
X92491677Y-104152355D01*
X92522688Y-104161737D01*
X92599808Y-104133344D01*
X92802803Y-103987421D01*
X92991817Y-103799036D01*
X93173869Y-103574120D01*
X93406908Y-103255901D01*
X92934786Y-103494733D01*
X92669417Y-103664947D01*
X92535608Y-103790572D01*
X92465911Y-103905766D01*
X92444469Y-104015924D01*
X92183462Y-104015924D01*
X92176474Y-103945399D01*
X92181594Y-103852054D01*
X92195158Y-103782184D01*
X92221481Y-103717807D01*
X92267515Y-103647911D01*
X92438607Y-103468210D01*
X92654175Y-103287543D01*
X92855668Y-103148417D01*
X93044757Y-103045608D01*
X93246771Y-102961295D01*
X93394298Y-102919154D01*
X93499965Y-102907306D01*
X93542689Y-102916262D01*
G37*
G36*
X93879335Y-104006032D02*
G01*
X93879335Y-103858937D01*
X94044565Y-103641683D01*
X93989852Y-103616790D01*
X93953340Y-103587278D01*
X93930916Y-103547432D01*
X93922383Y-103485978D01*
X93935701Y-103408455D01*
X93984298Y-103298400D01*
X94053241Y-103189518D01*
X94137255Y-103087008D01*
X94229891Y-103001617D01*
X94303035Y-102959696D01*
X94360737Y-102944858D01*
X94395939Y-102956195D01*
X94407449Y-102989555D01*
X94396891Y-103031717D01*
X94349563Y-103122911D01*
X94724017Y-103070962D01*
X94871083Y-103059713D01*
X94933182Y-103068323D01*
X94964329Y-103096954D01*
X94993082Y-103156434D01*
X95016163Y-103292904D01*
X95007378Y-103336895D01*
X94977512Y-103388342D01*
X94846536Y-103534521D01*
X94746873Y-103655682D01*
X94665186Y-103786031D01*
X94606471Y-103915622D01*
X94591913Y-103989546D01*
X94603940Y-104038754D01*
X94638395Y-104068075D01*
X94704937Y-104079672D01*
X94783616Y-104061506D01*
X94920278Y-103987713D01*
X95145307Y-103820286D01*
X95145307Y-103971594D01*
X94862473Y-104253878D01*
X94751622Y-104349023D01*
X94656393Y-104417276D01*
X94561559Y-104464605D01*
X94485668Y-104478276D01*
X94405328Y-104458736D01*
X94337840Y-104397676D01*
X94295387Y-104305754D01*
X94279038Y-104166133D01*
X94289486Y-104075229D01*
X94324467Y-103964084D01*
X94378066Y-103850380D01*
X94457091Y-103718803D01*
X94642655Y-103468576D01*
X94529815Y-103490558D01*
X94378140Y-103518035D01*
X94257972Y-103539834D01*
X94162697Y-103699211D01*
X94037631Y-103854361D01*
X93879335Y-104006032D01*
G37*
G36*
X96470672Y-102916262D02*
G01*
X96511479Y-102944675D01*
X96571746Y-103030404D01*
X96593728Y-103102944D01*
X96585861Y-103138486D01*
X96563319Y-103162112D01*
X96466782Y-103203511D01*
X96501038Y-103282280D01*
X96536209Y-103366543D01*
X96548665Y-103424979D01*
X96530814Y-103483420D01*
X96448647Y-103612191D01*
X96309429Y-103811310D01*
X96280409Y-103879378D01*
X96270045Y-103965549D01*
X96286330Y-104050285D01*
X96328923Y-104095921D01*
X96403401Y-104112461D01*
X96492686Y-104092226D01*
X96635673Y-104012841D01*
X96858243Y-103836955D01*
X96858243Y-103976540D01*
X96559769Y-104281941D01*
X96350638Y-104453019D01*
X96207612Y-104532498D01*
X96110493Y-104553564D01*
X96037301Y-104539057D01*
X95992158Y-104499342D01*
X95966922Y-104437810D01*
X95956987Y-104341622D01*
X95979434Y-104167868D01*
X96063049Y-103901618D01*
X95638250Y-104349499D01*
X95534236Y-104435954D01*
X95455592Y-104478127D01*
X95395167Y-104490000D01*
X95348337Y-104474190D01*
X95278480Y-104410498D01*
X95215807Y-104322962D01*
X95157030Y-104205701D01*
X95117571Y-104077743D01*
X95111445Y-104015924D01*
X95372452Y-104015924D01*
X95378264Y-104077229D01*
X95393702Y-104121437D01*
X95419661Y-104152355D01*
X95450671Y-104161737D01*
X95527791Y-104133344D01*
X95730786Y-103987421D01*
X95919801Y-103799036D01*
X96101852Y-103574120D01*
X96334891Y-103255901D01*
X95862770Y-103494733D01*
X95597400Y-103664947D01*
X95463591Y-103790572D01*
X95393894Y-103905766D01*
X95372452Y-104015924D01*
X95111445Y-104015924D01*
X95104457Y-103945399D01*
X95109577Y-103852054D01*
X95123142Y-103782184D01*
X95149464Y-103717807D01*
X95195498Y-103647911D01*
X95366591Y-103468210D01*
X95582159Y-103287543D01*
X95783652Y-103148417D01*
X95972740Y-103045608D01*
X96174754Y-102961295D01*
X96322281Y-102919154D01*
X96427948Y-102907306D01*
X96470672Y-102916262D01*
G37*
G36*
X97107554Y-103846664D02*
G01*
X97070917Y-104016840D01*
X97062857Y-104090479D01*
X97073900Y-104152957D01*
X97101955Y-104185490D01*
X97149319Y-104196908D01*
X97204407Y-104177531D01*
X97328103Y-104086382D01*
X97571737Y-103855457D01*
X97595059Y-103720374D01*
X97671571Y-103547344D01*
X97776439Y-103380240D01*
X97888459Y-103239232D01*
X98005601Y-103130712D01*
X98067428Y-103106608D01*
X98119517Y-103119663D01*
X98150897Y-103157448D01*
X98163415Y-103231172D01*
X98155567Y-103306778D01*
X98128244Y-103407943D01*
X98086572Y-103512655D01*
X98025296Y-103632341D01*
X97861165Y-103876706D01*
X97914164Y-103944915D01*
X97958801Y-103962435D01*
X98002499Y-103955353D01*
X98055704Y-103931294D01*
X98200418Y-103826880D01*
X98200418Y-103979471D01*
X98015221Y-104105134D01*
X97942072Y-104129246D01*
X97842114Y-104138290D01*
X97793592Y-104128121D01*
X97695751Y-104084434D01*
X97496516Y-104287646D01*
X97357414Y-104414345D01*
X97226952Y-104502560D01*
X97141076Y-104525170D01*
X97053628Y-104507910D01*
X96972990Y-104454205D01*
X96895612Y-104353895D01*
X96839847Y-104236172D01*
X96806386Y-104111427D01*
X96795045Y-103977639D01*
X96810362Y-103849827D01*
X96860606Y-103701295D01*
X96954564Y-103526434D01*
X97103707Y-103319466D01*
X97194397Y-103215056D01*
X97253733Y-103161196D01*
X97315067Y-103129118D01*
X97384891Y-103118332D01*
X97446346Y-103124202D01*
X97505242Y-103141779D01*
X97550851Y-103170544D01*
X97562944Y-103200031D01*
X97551758Y-103267027D01*
X97510601Y-103364253D01*
X97424825Y-103503197D01*
X97275608Y-103689448D01*
X97107554Y-103846664D01*
G37*
G36*
X101482493Y-103886598D02*
G01*
X101422939Y-103803847D01*
X101332466Y-103723199D01*
X101225460Y-103655939D01*
X101103489Y-103602299D01*
X100973911Y-103562524D01*
X100837325Y-103534155D01*
X100565960Y-103476727D01*
X100308528Y-103387374D01*
X100063014Y-103265610D01*
X100032674Y-103241956D01*
X99995237Y-103194169D01*
X99967895Y-103138983D01*
X99959516Y-103088839D01*
X99974504Y-102909061D01*
X100020333Y-102726139D01*
X100092856Y-102558153D01*
X100176038Y-102441107D01*
X100289115Y-102342925D01*
X100465221Y-102243238D01*
X100724485Y-102143436D01*
X100991170Y-102074429D01*
X101286841Y-102031304D01*
X101615116Y-102016308D01*
X101894339Y-102029479D01*
X102074354Y-102062103D01*
X102173905Y-102103719D01*
X102222729Y-102151279D01*
X102237752Y-102206085D01*
X102225614Y-102351116D01*
X102194888Y-102446053D01*
X102147427Y-102520694D01*
X102103114Y-102559260D01*
X101932571Y-102634548D01*
X101708906Y-102728703D01*
X101545690Y-102823408D01*
X101459228Y-102868838D01*
X101439091Y-102862943D01*
X101432850Y-102846489D01*
X101446596Y-102807826D01*
X101506673Y-102737313D01*
X101587309Y-102671086D01*
X101688023Y-102611650D01*
X101783594Y-102556126D01*
X101797749Y-102541125D01*
X101781239Y-102528579D01*
X101678681Y-102520425D01*
X101308054Y-102537855D01*
X100979108Y-102587653D01*
X100766414Y-102641336D01*
X100600868Y-102700773D01*
X100474441Y-102764241D01*
X100362044Y-102846932D01*
X100307008Y-102918893D01*
X100290893Y-102984609D01*
X100308670Y-103041348D01*
X100365631Y-103081146D01*
X100702869Y-103179515D01*
X100957254Y-103256046D01*
X101172732Y-103339066D01*
X101368463Y-103432994D01*
X101512771Y-103521814D01*
X101615483Y-103605596D01*
X101697902Y-103705023D01*
X101744736Y-103807805D01*
X101760197Y-103917189D01*
X101746340Y-104034135D01*
X101703227Y-104154776D01*
X101634450Y-104267379D01*
X101537081Y-104373129D01*
X101420312Y-104463034D01*
X101285389Y-104536345D01*
X101155519Y-104582759D01*
X100980207Y-104630500D01*
X100792275Y-104669231D01*
X100581969Y-104699560D01*
X100369623Y-104718407D01*
X100172374Y-104724473D01*
X99931673Y-104715634D01*
X99740990Y-104691716D01*
X99592053Y-104656146D01*
X99458715Y-104595517D01*
X99392106Y-104526392D01*
X99371318Y-104446402D01*
X99385899Y-104377432D01*
X99445874Y-104252229D01*
X99530788Y-104138724D01*
X99622644Y-104074909D01*
X99712335Y-104046358D01*
X99797583Y-104033693D01*
X99868200Y-104039803D01*
X99883129Y-104059338D01*
X99875802Y-104075275D01*
X99859865Y-104086999D01*
X99842829Y-104095608D01*
X99775968Y-104121254D01*
X99736950Y-104138656D01*
X99723211Y-104159905D01*
X99739124Y-104172931D01*
X99836855Y-104188424D01*
X100141599Y-104196908D01*
X100493223Y-104189566D01*
X100745184Y-104170530D01*
X100972015Y-104132007D01*
X101159909Y-104074726D01*
X101331095Y-103992670D01*
X101482493Y-103886598D01*
G37*
G36*
X103618763Y-103822301D02*
G01*
X103618763Y-103965000D01*
X103308269Y-104265601D01*
X103179754Y-104372443D01*
X103079658Y-104441823D01*
X102983070Y-104488690D01*
X102912046Y-104501723D01*
X102839093Y-104489401D01*
X102790026Y-104455711D01*
X102758599Y-104398591D01*
X102746449Y-104307733D01*
X102768937Y-104151920D01*
X102846100Y-103954924D01*
X102958719Y-103751241D01*
X103118492Y-103504846D01*
X102967001Y-103609443D01*
X102822103Y-103747562D01*
X102715675Y-103870661D01*
X102459586Y-104176941D01*
X102292524Y-104381739D01*
X102246603Y-104419152D01*
X102207161Y-104429733D01*
X102145003Y-104412239D01*
X102095308Y-104356080D01*
X102057476Y-104240656D01*
X102041381Y-104030762D01*
X102050594Y-103898268D01*
X102080399Y-103744448D01*
X102143802Y-103580286D01*
X102290326Y-103331189D01*
X102638744Y-102823184D01*
X102904352Y-102456678D01*
X103152613Y-102140451D01*
X103328785Y-101941386D01*
X103490871Y-101796523D01*
X103557946Y-101770111D01*
X103627002Y-101781378D01*
X103677198Y-101799970D01*
X103713317Y-101827495D01*
X103723360Y-101855657D01*
X103709771Y-101914080D01*
X103652102Y-102026383D01*
X103408653Y-102394030D01*
X103144321Y-102764790D01*
X102911496Y-103069239D01*
X102628480Y-103420582D01*
X102337953Y-103752875D01*
X102337953Y-103979654D01*
X102803419Y-103490191D01*
X102999776Y-103309898D01*
X103144870Y-103195085D01*
X103279793Y-103114070D01*
X103352782Y-103094884D01*
X103411675Y-103111889D01*
X103471851Y-103170355D01*
X103515160Y-103244591D01*
X103526622Y-103295286D01*
X103505006Y-103350423D01*
X103270350Y-103641683D01*
X103136810Y-103847030D01*
X103100390Y-103935302D01*
X103090099Y-104001086D01*
X103100415Y-104052743D01*
X103127771Y-104081003D01*
X103176378Y-104091395D01*
X103239935Y-104074672D01*
X103372456Y-104000667D01*
X103618763Y-103822301D01*
G37*
G36*
X103586523Y-104006032D02*
G01*
X103586523Y-103858937D01*
X103751753Y-103641683D01*
X103697039Y-103616790D01*
X103660528Y-103587278D01*
X103638104Y-103547432D01*
X103629570Y-103485978D01*
X103642889Y-103408455D01*
X103691486Y-103298400D01*
X103760429Y-103189518D01*
X103844443Y-103087008D01*
X103937079Y-103001617D01*
X104010223Y-102959696D01*
X104067925Y-102944858D01*
X104103127Y-102956195D01*
X104114637Y-102989555D01*
X104104079Y-103031717D01*
X104056751Y-103122911D01*
X104431205Y-103070962D01*
X104578271Y-103059713D01*
X104640369Y-103068323D01*
X104671517Y-103096954D01*
X104700270Y-103156434D01*
X104723351Y-103292904D01*
X104714566Y-103336895D01*
X104684699Y-103388342D01*
X104553724Y-103534521D01*
X104454061Y-103655682D01*
X104372374Y-103786031D01*
X104313659Y-103915622D01*
X104299101Y-103989546D01*
X104311128Y-104038754D01*
X104345583Y-104068075D01*
X104412124Y-104079672D01*
X104490803Y-104061506D01*
X104627466Y-103987713D01*
X104852494Y-103820286D01*
X104852494Y-103971594D01*
X104569661Y-104253878D01*
X104458810Y-104349023D01*
X104363581Y-104417276D01*
X104268747Y-104464605D01*
X104192855Y-104478276D01*
X104112515Y-104458736D01*
X104045027Y-104397676D01*
X104002574Y-104305754D01*
X103986226Y-104166133D01*
X103996673Y-104075229D01*
X104031655Y-103964084D01*
X104085253Y-103850380D01*
X104164279Y-103718803D01*
X104349842Y-103468576D01*
X104237002Y-103490558D01*
X104085327Y-103518035D01*
X103965160Y-103539834D01*
X103869885Y-103699211D01*
X103744819Y-103854361D01*
X103586523Y-104006032D01*
G37*
G36*
X105678279Y-102930753D02*
G01*
X105627180Y-102921121D01*
X105576796Y-102890636D01*
X105540898Y-102844892D01*
X105528986Y-102788604D01*
X105548410Y-102697857D01*
X105616547Y-102585272D01*
X105680579Y-102519288D01*
X105740595Y-102484404D01*
X105799180Y-102473531D01*
X105858296Y-102483613D01*
X105905608Y-102512915D01*
X105937068Y-102558993D01*
X105948473Y-102625938D01*
X105929456Y-102714305D01*
X105862927Y-102823042D01*
X105800391Y-102886011D01*
X105739637Y-102919969D01*
X105678279Y-102930753D01*
G37*
G36*
X105823543Y-103834391D02*
G01*
X105823543Y-103997789D01*
X105619885Y-104232617D01*
X105449851Y-104383754D01*
X105329041Y-104461692D01*
X105232240Y-104501686D01*
X105153646Y-104513447D01*
X105050238Y-104494156D01*
X104966989Y-104437298D01*
X104898839Y-104335394D01*
X104836933Y-104150814D01*
X104815858Y-103947414D01*
X104832344Y-103793724D01*
X104871728Y-103673190D01*
X104955992Y-103525179D01*
X105125157Y-103290353D01*
X105267105Y-103151221D01*
X105387624Y-103080683D01*
X105493815Y-103059713D01*
X105570846Y-103073114D01*
X105610704Y-103106975D01*
X105624607Y-103163761D01*
X105608670Y-103238959D01*
X105543091Y-103375519D01*
X105460076Y-103506369D01*
X105397461Y-103579951D01*
X105165919Y-103819736D01*
X105125763Y-103891151D01*
X105112430Y-103971228D01*
X105125787Y-104036728D01*
X105165919Y-104090479D01*
X105225900Y-104125776D01*
X105305321Y-104138290D01*
X105400276Y-104122320D01*
X105514881Y-104068131D01*
X105637480Y-103983647D01*
X105823543Y-103834391D01*
G37*
G36*
X106073220Y-103846664D02*
G01*
X106036584Y-104016840D01*
X106028524Y-104090479D01*
X106039566Y-104152957D01*
X106067621Y-104185490D01*
X106114986Y-104196908D01*
X106170073Y-104177531D01*
X106293770Y-104086382D01*
X106537404Y-103855457D01*
X106560725Y-103720374D01*
X106637238Y-103547344D01*
X106742105Y-103380240D01*
X106854125Y-103239232D01*
X106971268Y-103130712D01*
X107033094Y-103106608D01*
X107085184Y-103119663D01*
X107116563Y-103157448D01*
X107129082Y-103231172D01*
X107121233Y-103306778D01*
X107093911Y-103407943D01*
X107052239Y-103512655D01*
X106990963Y-103632341D01*
X106826831Y-103876706D01*
X106879831Y-103944915D01*
X106924467Y-103962435D01*
X106968166Y-103955353D01*
X107021371Y-103931294D01*
X107166085Y-103826880D01*
X107166085Y-103979471D01*
X106980887Y-104105134D01*
X106907739Y-104129246D01*
X106807780Y-104138290D01*
X106759258Y-104128121D01*
X106661418Y-104084434D01*
X106462182Y-104287646D01*
X106323080Y-104414345D01*
X106192618Y-104502560D01*
X106106742Y-104525170D01*
X106019294Y-104507910D01*
X105938656Y-104454205D01*
X105861278Y-104353895D01*
X105805513Y-104236172D01*
X105772052Y-104111427D01*
X105760711Y-103977639D01*
X105776029Y-103849827D01*
X105826273Y-103701295D01*
X105920231Y-103526434D01*
X106069373Y-103319466D01*
X106160063Y-103215056D01*
X106219399Y-103161196D01*
X106280733Y-103129118D01*
X106350558Y-103118332D01*
X106412012Y-103124202D01*
X106470908Y-103141779D01*
X106516517Y-103170544D01*
X106528611Y-103200031D01*
X106517424Y-103267027D01*
X106476267Y-103364253D01*
X106390491Y-103503197D01*
X106241274Y-103689448D01*
X106073220Y-103846664D01*
G37*
G36*
X108496213Y-102916262D02*
G01*
X108537020Y-102944675D01*
X108597287Y-103030404D01*
X108619269Y-103102944D01*
X108611402Y-103138486D01*
X108588860Y-103162112D01*
X108492323Y-103203511D01*
X108526578Y-103282280D01*
X108561749Y-103366543D01*
X108574206Y-103424979D01*
X108556355Y-103483420D01*
X108474188Y-103612191D01*
X108334970Y-103811310D01*
X108305950Y-103879378D01*
X108295586Y-103965549D01*
X108311870Y-104050285D01*
X108354464Y-104095921D01*
X108428942Y-104112461D01*
X108518227Y-104092226D01*
X108661213Y-104012841D01*
X108883784Y-103836955D01*
X108883784Y-103976540D01*
X108585310Y-104281941D01*
X108376179Y-104453019D01*
X108233153Y-104532498D01*
X108136034Y-104553564D01*
X108062842Y-104539057D01*
X108017698Y-104499342D01*
X107992463Y-104437810D01*
X107982527Y-104341622D01*
X108004974Y-104167868D01*
X108088590Y-103901618D01*
X107663790Y-104349499D01*
X107559777Y-104435954D01*
X107481133Y-104478127D01*
X107420708Y-104490000D01*
X107373878Y-104474190D01*
X107304021Y-104410498D01*
X107241348Y-104322962D01*
X107182571Y-104205701D01*
X107143112Y-104077743D01*
X107136986Y-104015924D01*
X107397993Y-104015924D01*
X107403805Y-104077229D01*
X107419242Y-104121437D01*
X107445202Y-104152355D01*
X107476212Y-104161737D01*
X107553332Y-104133344D01*
X107756327Y-103987421D01*
X107945341Y-103799036D01*
X108127393Y-103574120D01*
X108360432Y-103255901D01*
X107888310Y-103494733D01*
X107622941Y-103664947D01*
X107489132Y-103790572D01*
X107419435Y-103905766D01*
X107397993Y-104015924D01*
X107136986Y-104015924D01*
X107129998Y-103945399D01*
X107135118Y-103852054D01*
X107148682Y-103782184D01*
X107175005Y-103717807D01*
X107221039Y-103647911D01*
X107392131Y-103468210D01*
X107607699Y-103287543D01*
X107809193Y-103148417D01*
X107998281Y-103045608D01*
X108200295Y-102961295D01*
X108347822Y-102919154D01*
X108453489Y-102907306D01*
X108496213Y-102916262D01*
G37*
G36*
X109840633Y-102819571D02*
G01*
X109892751Y-102839528D01*
X109906489Y-102882393D01*
X109898063Y-102951636D01*
X109927555Y-103093785D01*
X109973717Y-103269823D01*
X109990204Y-103431390D01*
X109974761Y-103563855D01*
X109928105Y-103691142D01*
X109854154Y-103810099D01*
X109748770Y-103928729D01*
X109621924Y-104037949D01*
X109459159Y-104152028D01*
X109560092Y-104161737D01*
X109643597Y-104151965D01*
X109739427Y-104120155D01*
X109835099Y-104072382D01*
X109937081Y-104008047D01*
X110182911Y-103816988D01*
X110182911Y-103968663D01*
X109919954Y-104204686D01*
X109710301Y-104357925D01*
X109566777Y-104436425D01*
X109448886Y-104477656D01*
X109351081Y-104490000D01*
X109227375Y-104472684D01*
X109108268Y-104419771D01*
X108990212Y-104326051D01*
X108908180Y-104224357D01*
X108868946Y-104136641D01*
X108851882Y-104038270D01*
X108845132Y-103892826D01*
X108845132Y-103841718D01*
X108857004Y-103829078D01*
X109047365Y-103829078D01*
X109150509Y-103861634D01*
X109207283Y-103899054D01*
X109332946Y-104068131D01*
X109453558Y-104001821D01*
X109539942Y-103917372D01*
X109593733Y-103808206D01*
X109613764Y-103652491D01*
X109612665Y-103616587D01*
X109609551Y-103584530D01*
X109574380Y-103301880D01*
X109047365Y-103829078D01*
X108857004Y-103829078D01*
X109573098Y-103066674D01*
X109608871Y-102944933D01*
X109658086Y-102869756D01*
X109719109Y-102827803D01*
X109795847Y-102813517D01*
X109840633Y-102819571D01*
G37*
G36*
X110888712Y-102766622D02*
G01*
X110973342Y-102766622D01*
X111083984Y-102591105D01*
X111170080Y-102492032D01*
X111266557Y-102430195D01*
X111374328Y-102409966D01*
X111449387Y-102418823D01*
X111483035Y-102438764D01*
X111493030Y-102467119D01*
X111479114Y-102501113D01*
X111404187Y-102603040D01*
X111275409Y-102777979D01*
X111390448Y-102791168D01*
X111483871Y-102802342D01*
X111351094Y-103024312D01*
X111184551Y-103256268D01*
X111084900Y-103248941D01*
X111005949Y-103242712D01*
X110912342Y-103235751D01*
X110728977Y-103554855D01*
X110661214Y-103694800D01*
X110614672Y-103814057D01*
X110584443Y-103930664D01*
X110574921Y-104036257D01*
X110588794Y-104117336D01*
X110623657Y-104159017D01*
X110681716Y-104173461D01*
X110760975Y-104156427D01*
X110882850Y-104091029D01*
X111228515Y-103828895D01*
X111228515Y-103978372D01*
X110912371Y-104294601D01*
X110683719Y-104474808D01*
X110521011Y-104560476D01*
X110405111Y-104583789D01*
X110319028Y-104565297D01*
X110251971Y-104510150D01*
X110209455Y-104428876D01*
X110194269Y-104322205D01*
X110201505Y-104242701D01*
X110226142Y-104140671D01*
X110331655Y-103846481D01*
X110295202Y-103879453D01*
X110248124Y-103922501D01*
X110201779Y-103963534D01*
X110142978Y-104016474D01*
X110142978Y-103855273D01*
X110278822Y-103722996D01*
X110448563Y-103518910D01*
X110659002Y-103222562D01*
X110611741Y-103220364D01*
X110548543Y-103219265D01*
X110436044Y-103224027D01*
X110369574Y-103235385D01*
X110323229Y-103248941D01*
X110289890Y-103256085D01*
X110278349Y-103237950D01*
X110295017Y-103165854D01*
X110363162Y-103039014D01*
X110433589Y-102931015D01*
X110492489Y-102864258D01*
X110559863Y-102816571D01*
X110641966Y-102786772D01*
X110738871Y-102772415D01*
X110888712Y-102766622D01*
G37*
G36*
X112558460Y-102916262D02*
G01*
X112599267Y-102944675D01*
X112659534Y-103030404D01*
X112681516Y-103102944D01*
X112673649Y-103138486D01*
X112651107Y-103162112D01*
X112554570Y-103203511D01*
X112588825Y-103282280D01*
X112623996Y-103366543D01*
X112636453Y-103424979D01*
X112618602Y-103483420D01*
X112536435Y-103612191D01*
X112397217Y-103811310D01*
X112368197Y-103879378D01*
X112357833Y-103965549D01*
X112374117Y-104050285D01*
X112416711Y-104095921D01*
X112491189Y-104112461D01*
X112580474Y-104092226D01*
X112723460Y-104012841D01*
X112946031Y-103836955D01*
X112946031Y-103976540D01*
X112647557Y-104281941D01*
X112438426Y-104453019D01*
X112295400Y-104532498D01*
X112198281Y-104553564D01*
X112125089Y-104539057D01*
X112079945Y-104499342D01*
X112054710Y-104437810D01*
X112044774Y-104341622D01*
X112067221Y-104167868D01*
X112150837Y-103901618D01*
X111726038Y-104349499D01*
X111622024Y-104435954D01*
X111543380Y-104478127D01*
X111482955Y-104490000D01*
X111436125Y-104474190D01*
X111366268Y-104410498D01*
X111303595Y-104322962D01*
X111244818Y-104205701D01*
X111205359Y-104077743D01*
X111199233Y-104015924D01*
X111460240Y-104015924D01*
X111466052Y-104077229D01*
X111481489Y-104121437D01*
X111507449Y-104152355D01*
X111538459Y-104161737D01*
X111615579Y-104133344D01*
X111818574Y-103987421D01*
X112007588Y-103799036D01*
X112189640Y-103574120D01*
X112422679Y-103255901D01*
X111950558Y-103494733D01*
X111685188Y-103664947D01*
X111551379Y-103790572D01*
X111481682Y-103905766D01*
X111460240Y-104015924D01*
X111199233Y-104015924D01*
X111192245Y-103945399D01*
X111197365Y-103852054D01*
X111210929Y-103782184D01*
X111237252Y-103717807D01*
X111283286Y-103647911D01*
X111454378Y-103468210D01*
X111669946Y-103287543D01*
X111871440Y-103148417D01*
X112060528Y-103045608D01*
X112262542Y-102961295D01*
X112410069Y-102919154D01*
X112515736Y-102907306D01*
X112558460Y-102916262D01*
G37*
G36*
X113195341Y-103846664D02*
G01*
X113158705Y-104016840D01*
X113150645Y-104090479D01*
X113161688Y-104152957D01*
X113189743Y-104185490D01*
X113237107Y-104196908D01*
X113292194Y-104177531D01*
X113415891Y-104086382D01*
X113659525Y-103855457D01*
X113682847Y-103720374D01*
X113759359Y-103547344D01*
X113864227Y-103380240D01*
X113976247Y-103239232D01*
X114093389Y-103130712D01*
X114155216Y-103106608D01*
X114207305Y-103119663D01*
X114238685Y-103157448D01*
X114251203Y-103231172D01*
X114243355Y-103306778D01*
X114216032Y-103407943D01*
X114174360Y-103512655D01*
X114113084Y-103632341D01*
X113948953Y-103876706D01*
X114001952Y-103944915D01*
X114046589Y-103962435D01*
X114090287Y-103955353D01*
X114143492Y-103931294D01*
X114288206Y-103826880D01*
X114288206Y-103979471D01*
X114103009Y-104105134D01*
X114029860Y-104129246D01*
X113929902Y-104138290D01*
X113881380Y-104128121D01*
X113783539Y-104084434D01*
X113584304Y-104287646D01*
X113445202Y-104414345D01*
X113314740Y-104502560D01*
X113228864Y-104525170D01*
X113141416Y-104507910D01*
X113060778Y-104454205D01*
X112983400Y-104353895D01*
X112927635Y-104236172D01*
X112894174Y-104111427D01*
X112882833Y-103977639D01*
X112898150Y-103849827D01*
X112948394Y-103701295D01*
X113042352Y-103526434D01*
X113191495Y-103319466D01*
X113282185Y-103215056D01*
X113341521Y-103161196D01*
X113402854Y-103129118D01*
X113472679Y-103118332D01*
X113534133Y-103124202D01*
X113593030Y-103141779D01*
X113638639Y-103170544D01*
X113650732Y-103200031D01*
X113639546Y-103267027D01*
X113598388Y-103364253D01*
X113512613Y-103503197D01*
X113363396Y-103689448D01*
X113195341Y-103846664D01*
G37*
G36*
X115618334Y-102916262D02*
G01*
X115659141Y-102944675D01*
X115719408Y-103030404D01*
X115741390Y-103102944D01*
X115733524Y-103138486D01*
X115710982Y-103162112D01*
X115614445Y-103203511D01*
X115648700Y-103282280D01*
X115683871Y-103366543D01*
X115696327Y-103424979D01*
X115678477Y-103483420D01*
X115596310Y-103612191D01*
X115457091Y-103811310D01*
X115428071Y-103879378D01*
X115417707Y-103965549D01*
X115433992Y-104050285D01*
X115476585Y-104095921D01*
X115551064Y-104112461D01*
X115640349Y-104092226D01*
X115783335Y-104012841D01*
X116005905Y-103836955D01*
X116005905Y-103976540D01*
X115707431Y-104281941D01*
X115498301Y-104453019D01*
X115355274Y-104532498D01*
X115258155Y-104553564D01*
X115184964Y-104539057D01*
X115139820Y-104499342D01*
X115114584Y-104437810D01*
X115104649Y-104341622D01*
X115127096Y-104167868D01*
X115210711Y-103901618D01*
X114785912Y-104349499D01*
X114681899Y-104435954D01*
X114603255Y-104478127D01*
X114542829Y-104490000D01*
X114495999Y-104474190D01*
X114426142Y-104410498D01*
X114363470Y-104322962D01*
X114304692Y-104205701D01*
X114265234Y-104077743D01*
X114259108Y-104015924D01*
X114520115Y-104015924D01*
X114525926Y-104077229D01*
X114541364Y-104121437D01*
X114567323Y-104152355D01*
X114598333Y-104161737D01*
X114675453Y-104133344D01*
X114878449Y-103987421D01*
X115067463Y-103799036D01*
X115249515Y-103574120D01*
X115482554Y-103255901D01*
X115010432Y-103494733D01*
X114745062Y-103664947D01*
X114611253Y-103790572D01*
X114541556Y-103905766D01*
X114520115Y-104015924D01*
X114259108Y-104015924D01*
X114252119Y-103945399D01*
X114257239Y-103852054D01*
X114270804Y-103782184D01*
X114297126Y-103717807D01*
X114343161Y-103647911D01*
X114514253Y-103468210D01*
X114729821Y-103287543D01*
X114931314Y-103148417D01*
X115120403Y-103045608D01*
X115322416Y-102961295D01*
X115469944Y-102919154D01*
X115575610Y-102907306D01*
X115618334Y-102916262D01*
G37*
D11*
X84738095Y-100304819D02*
X84738095Y-99304819D01*
X84738095Y-99781009D02*
X85309523Y-99781009D01*
X85309523Y-100304819D02*
X85309523Y-99304819D01*
X86309523Y-100304819D02*
X85738095Y-100304819D01*
X86023809Y-100304819D02*
X86023809Y-99304819D01*
X86023809Y-99304819D02*
X85928571Y-99447676D01*
X85928571Y-99447676D02*
X85833333Y-99542914D01*
X85833333Y-99542914D02*
X85738095Y-99590533D01*
X84738095Y-138304819D02*
X84738095Y-137304819D01*
X84738095Y-137781009D02*
X85309523Y-137781009D01*
X85309523Y-138304819D02*
X85309523Y-137304819D01*
X85690476Y-137304819D02*
X86309523Y-137304819D01*
X86309523Y-137304819D02*
X85976190Y-137685771D01*
X85976190Y-137685771D02*
X86119047Y-137685771D01*
X86119047Y-137685771D02*
X86214285Y-137733390D01*
X86214285Y-137733390D02*
X86261904Y-137781009D01*
X86261904Y-137781009D02*
X86309523Y-137876247D01*
X86309523Y-137876247D02*
X86309523Y-138114342D01*
X86309523Y-138114342D02*
X86261904Y-138209580D01*
X86261904Y-138209580D02*
X86214285Y-138257200D01*
X86214285Y-138257200D02*
X86119047Y-138304819D01*
X86119047Y-138304819D02*
X85833333Y-138304819D01*
X85833333Y-138304819D02*
X85738095Y-138257200D01*
X85738095Y-138257200D02*
X85690476Y-138209580D01*
X115246667Y-122533200D02*
X115389524Y-122580819D01*
X115389524Y-122580819D02*
X115627619Y-122580819D01*
X115627619Y-122580819D02*
X115722857Y-122533200D01*
X115722857Y-122533200D02*
X115770476Y-122485580D01*
X115770476Y-122485580D02*
X115818095Y-122390342D01*
X115818095Y-122390342D02*
X115818095Y-122295104D01*
X115818095Y-122295104D02*
X115770476Y-122199866D01*
X115770476Y-122199866D02*
X115722857Y-122152247D01*
X115722857Y-122152247D02*
X115627619Y-122104628D01*
X115627619Y-122104628D02*
X115437143Y-122057009D01*
X115437143Y-122057009D02*
X115341905Y-122009390D01*
X115341905Y-122009390D02*
X115294286Y-121961771D01*
X115294286Y-121961771D02*
X115246667Y-121866533D01*
X115246667Y-121866533D02*
X115246667Y-121771295D01*
X115246667Y-121771295D02*
X115294286Y-121676057D01*
X115294286Y-121676057D02*
X115341905Y-121628438D01*
X115341905Y-121628438D02*
X115437143Y-121580819D01*
X115437143Y-121580819D02*
X115675238Y-121580819D01*
X115675238Y-121580819D02*
X115818095Y-121628438D01*
X116151429Y-121580819D02*
X116389524Y-122580819D01*
X116389524Y-122580819D02*
X116580000Y-121866533D01*
X116580000Y-121866533D02*
X116770476Y-122580819D01*
X116770476Y-122580819D02*
X117008572Y-121580819D01*
X117341905Y-121676057D02*
X117389524Y-121628438D01*
X117389524Y-121628438D02*
X117484762Y-121580819D01*
X117484762Y-121580819D02*
X117722857Y-121580819D01*
X117722857Y-121580819D02*
X117818095Y-121628438D01*
X117818095Y-121628438D02*
X117865714Y-121676057D01*
X117865714Y-121676057D02*
X117913333Y-121771295D01*
X117913333Y-121771295D02*
X117913333Y-121866533D01*
X117913333Y-121866533D02*
X117865714Y-122009390D01*
X117865714Y-122009390D02*
X117294286Y-122580819D01*
X117294286Y-122580819D02*
X117913333Y-122580819D01*
X165738095Y-138304819D02*
X165738095Y-137304819D01*
X165738095Y-137781009D02*
X166309523Y-137781009D01*
X166309523Y-138304819D02*
X166309523Y-137304819D01*
X167214285Y-137638152D02*
X167214285Y-138304819D01*
X166976190Y-137257200D02*
X166738095Y-137971485D01*
X166738095Y-137971485D02*
X167357142Y-137971485D01*
X96246667Y-122533200D02*
X96389524Y-122580819D01*
X96389524Y-122580819D02*
X96627619Y-122580819D01*
X96627619Y-122580819D02*
X96722857Y-122533200D01*
X96722857Y-122533200D02*
X96770476Y-122485580D01*
X96770476Y-122485580D02*
X96818095Y-122390342D01*
X96818095Y-122390342D02*
X96818095Y-122295104D01*
X96818095Y-122295104D02*
X96770476Y-122199866D01*
X96770476Y-122199866D02*
X96722857Y-122152247D01*
X96722857Y-122152247D02*
X96627619Y-122104628D01*
X96627619Y-122104628D02*
X96437143Y-122057009D01*
X96437143Y-122057009D02*
X96341905Y-122009390D01*
X96341905Y-122009390D02*
X96294286Y-121961771D01*
X96294286Y-121961771D02*
X96246667Y-121866533D01*
X96246667Y-121866533D02*
X96246667Y-121771295D01*
X96246667Y-121771295D02*
X96294286Y-121676057D01*
X96294286Y-121676057D02*
X96341905Y-121628438D01*
X96341905Y-121628438D02*
X96437143Y-121580819D01*
X96437143Y-121580819D02*
X96675238Y-121580819D01*
X96675238Y-121580819D02*
X96818095Y-121628438D01*
X97151429Y-121580819D02*
X97389524Y-122580819D01*
X97389524Y-122580819D02*
X97580000Y-121866533D01*
X97580000Y-121866533D02*
X97770476Y-122580819D01*
X97770476Y-122580819D02*
X98008572Y-121580819D01*
X98913333Y-122580819D02*
X98341905Y-122580819D01*
X98627619Y-122580819D02*
X98627619Y-121580819D01*
X98627619Y-121580819D02*
X98532381Y-121723676D01*
X98532381Y-121723676D02*
X98437143Y-121818914D01*
X98437143Y-121818914D02*
X98341905Y-121866533D01*
X134246667Y-122533200D02*
X134389524Y-122580819D01*
X134389524Y-122580819D02*
X134627619Y-122580819D01*
X134627619Y-122580819D02*
X134722857Y-122533200D01*
X134722857Y-122533200D02*
X134770476Y-122485580D01*
X134770476Y-122485580D02*
X134818095Y-122390342D01*
X134818095Y-122390342D02*
X134818095Y-122295104D01*
X134818095Y-122295104D02*
X134770476Y-122199866D01*
X134770476Y-122199866D02*
X134722857Y-122152247D01*
X134722857Y-122152247D02*
X134627619Y-122104628D01*
X134627619Y-122104628D02*
X134437143Y-122057009D01*
X134437143Y-122057009D02*
X134341905Y-122009390D01*
X134341905Y-122009390D02*
X134294286Y-121961771D01*
X134294286Y-121961771D02*
X134246667Y-121866533D01*
X134246667Y-121866533D02*
X134246667Y-121771295D01*
X134246667Y-121771295D02*
X134294286Y-121676057D01*
X134294286Y-121676057D02*
X134341905Y-121628438D01*
X134341905Y-121628438D02*
X134437143Y-121580819D01*
X134437143Y-121580819D02*
X134675238Y-121580819D01*
X134675238Y-121580819D02*
X134818095Y-121628438D01*
X135151429Y-121580819D02*
X135389524Y-122580819D01*
X135389524Y-122580819D02*
X135580000Y-121866533D01*
X135580000Y-121866533D02*
X135770476Y-122580819D01*
X135770476Y-122580819D02*
X136008572Y-121580819D01*
X136294286Y-121580819D02*
X136913333Y-121580819D01*
X136913333Y-121580819D02*
X136580000Y-121961771D01*
X136580000Y-121961771D02*
X136722857Y-121961771D01*
X136722857Y-121961771D02*
X136818095Y-122009390D01*
X136818095Y-122009390D02*
X136865714Y-122057009D01*
X136865714Y-122057009D02*
X136913333Y-122152247D01*
X136913333Y-122152247D02*
X136913333Y-122390342D01*
X136913333Y-122390342D02*
X136865714Y-122485580D01*
X136865714Y-122485580D02*
X136818095Y-122533200D01*
X136818095Y-122533200D02*
X136722857Y-122580819D01*
X136722857Y-122580819D02*
X136437143Y-122580819D01*
X136437143Y-122580819D02*
X136341905Y-122533200D01*
X136341905Y-122533200D02*
X136294286Y-122485580D01*
X153246667Y-122533200D02*
X153389524Y-122580819D01*
X153389524Y-122580819D02*
X153627619Y-122580819D01*
X153627619Y-122580819D02*
X153722857Y-122533200D01*
X153722857Y-122533200D02*
X153770476Y-122485580D01*
X153770476Y-122485580D02*
X153818095Y-122390342D01*
X153818095Y-122390342D02*
X153818095Y-122295104D01*
X153818095Y-122295104D02*
X153770476Y-122199866D01*
X153770476Y-122199866D02*
X153722857Y-122152247D01*
X153722857Y-122152247D02*
X153627619Y-122104628D01*
X153627619Y-122104628D02*
X153437143Y-122057009D01*
X153437143Y-122057009D02*
X153341905Y-122009390D01*
X153341905Y-122009390D02*
X153294286Y-121961771D01*
X153294286Y-121961771D02*
X153246667Y-121866533D01*
X153246667Y-121866533D02*
X153246667Y-121771295D01*
X153246667Y-121771295D02*
X153294286Y-121676057D01*
X153294286Y-121676057D02*
X153341905Y-121628438D01*
X153341905Y-121628438D02*
X153437143Y-121580819D01*
X153437143Y-121580819D02*
X153675238Y-121580819D01*
X153675238Y-121580819D02*
X153818095Y-121628438D01*
X154151429Y-121580819D02*
X154389524Y-122580819D01*
X154389524Y-122580819D02*
X154580000Y-121866533D01*
X154580000Y-121866533D02*
X154770476Y-122580819D01*
X154770476Y-122580819D02*
X155008572Y-121580819D01*
X155818095Y-121914152D02*
X155818095Y-122580819D01*
X155580000Y-121533200D02*
X155341905Y-122247485D01*
X155341905Y-122247485D02*
X155960952Y-122247485D01*
X165738095Y-100304819D02*
X165738095Y-99304819D01*
X165738095Y-99781009D02*
X166309523Y-99781009D01*
X166309523Y-100304819D02*
X166309523Y-99304819D01*
X166738095Y-99400057D02*
X166785714Y-99352438D01*
X166785714Y-99352438D02*
X166880952Y-99304819D01*
X166880952Y-99304819D02*
X167119047Y-99304819D01*
X167119047Y-99304819D02*
X167214285Y-99352438D01*
X167214285Y-99352438D02*
X167261904Y-99400057D01*
X167261904Y-99400057D02*
X167309523Y-99495295D01*
X167309523Y-99495295D02*
X167309523Y-99590533D01*
X167309523Y-99590533D02*
X167261904Y-99733390D01*
X167261904Y-99733390D02*
X166690476Y-100304819D01*
X166690476Y-100304819D02*
X167309523Y-100304819D01*
%TO.C,SW2*%
D12*
X109595000Y-123015000D02*
X123565000Y-123015000D01*
X109595000Y-136985000D02*
X109595000Y-123015000D01*
X123565000Y-123015000D02*
X123565000Y-136985000D01*
X123565000Y-136985000D02*
X109595000Y-136985000D01*
%TO.C,SW1*%
X90595000Y-123015000D02*
X104565000Y-123015000D01*
X90595000Y-136985000D02*
X90595000Y-123015000D01*
X104565000Y-123015000D02*
X104565000Y-136985000D01*
X104565000Y-136985000D02*
X90595000Y-136985000D01*
%TO.C,SW3*%
X128595000Y-123015000D02*
X142565000Y-123015000D01*
X128595000Y-136985000D02*
X128595000Y-123015000D01*
X142565000Y-123015000D02*
X142565000Y-136985000D01*
X142565000Y-136985000D02*
X128595000Y-136985000D01*
%TO.C,SW4*%
X147595000Y-123015000D02*
X161565000Y-123015000D01*
X147595000Y-136985000D02*
X147595000Y-123015000D01*
X161565000Y-123015000D02*
X161565000Y-136985000D01*
X161565000Y-136985000D02*
X147595000Y-136985000D01*
%TD*%
M02*
